<svg xmlns="http://www.w3.org/2000/svg" width="1949.54" height="1737.474"><path d="M621.019 331.314l-18.694 5.734-12.546-29.054-28.36 5.027-12.947-20.213-10.24 6.56 17.32 27.026 26.88-4.76 13.053 30.227 28.134-8.64-2.6-11.907M1819.547 1376.263l-18.689 5.735-12.533-29.056-28.369 5.028-12.94-20.213-10.232 6.56 17.303 27.014 26.88-4.749 13.064 30.228 28.124-8.641-2.608-11.906M505.87 1720.22s-99.74-338.029-107.744-412.589c-7.99-74.573 47.782-51.467 47.782-51.467s-46.916-142.08-13.003-175.801c33.94-33.72 64.529 29.134 64.529 29.134s10.266-172.48 46.441-172.534c67.365-.12 66.052 188.094 66.052 188.094s17.18-73.68 53.257-53.48c54.403 30.467-23.605 178.148-23.605 178.148s69.32.04 93.665 35c43.69 62.707-227.374 435.494-227.374 435.494" fill="#50bfa5"/><path d="M538.459 1675.488s-287.507-48.08-350.04-99.027c-62.534-50.947-.64-73.907-.64-73.907s-144.427-74.04-142.76-124.386c1.68-50.347 73.426-24.747 73.426-24.747s-121.693-138.773-92.88-165.133c53.654-49.08 194.347 95.173 194.347 95.173s-41.773-68.6 2.213-79.467c66.36-16.36 115.32 152.787 115.32 152.787s-12.44-66.8 33.307-57.893c82.093 15.96 167.707 376.6 167.707 376.6" fill="#50bfa5"/><path d="M370.752 1298.888c-45.853-8.294-33.307 57.893-33.307 57.893s-48.96-169.147-115.32-152.787c-43.986 10.867-2.213 79.467-2.213 79.467s-140.693-144.253-194.347-95.173l511.934 487.28c-9.12-46.547-89.854-362.787-166.747-376.68" fill="#3c8f7c"/><path d="M620.259 1715.141s-151.414-153.973-227.654-170.013c-76.253-16.027-62.533 38.213-62.533 38.213s-151.28-132.293-186.347-100.24c-35.053 32.053 2.867 63 2.867 63s-126.013-22.32-144.04 19.027c-27.72 63.533 179.52 98.12 179.52 98.12s-86.853 6.026-66.707 45.866c30.374 60.08 504.894 6.027 504.894 6.027" fill="#355389"/><path d="M2.552 1565.128c18.027-41.347 144.04-19.027 144.04-19.027s-37.92-30.947-2.867-63c35.067-32.053 181.64 82.253 181.64 82.253s-34.56-66.066 41.68-50.026c76.254 16.04 253.214 199.813 253.214 199.813L2.552 1565.128" fill="#466eb6"/><path d="M861.302 127.1c-50.968 8.379-66.105 75.28-23.727 105.194 7.614 5.376 12.885 13.455 15.122 22.495l7.704 31.116c2.132 8.575 10.482 14.086 19.207 12.644l19.297-3.168c8.725-1.442 14.882-9.326 14.13-18.141-2.672-32.122-5.976-43.775 4.46-58.101 30.546-41.913-5.21-100.434-56.193-92.04" fill="#f7cc7f"/><path d="M890.306 172.053c-1.592 3.642-.988 8.317-.62 13.699 4.174-2.374 9.025-5.353 10.588-9.703 1.106-3.052-.133-7.358-3.23-8.154-.353-.089-5.617 1.592-6.738 4.158zm-47.245 19.73c2.61 2.801 6.945 4.025 13.3 3.73-1.09-4.674-2.728-8.876-5.927-11.87-7.255-6.739-11.708 3.45-7.373 8.14zm23.445 71.31c-3.317-27.53-7.977-56.58-9.555-64.822-29.211 1.607-18.108-29.182-4.63-16.663 3.834 3.569 5.648 8.405 6.857 13.714a75.427 75.427 0 0027.825-8.11c-.472-6.783-1.135-11.93.752-16.28 2.875-6.562 11.177-8.346 14.569-1.946 1.268 2.403 1.49 5.47.575 8.007-1.961 5.426-7.86 9.01-13.006 11.826a1279.958 1279.958 0 006.34 65.633l-2.742.354a1257.437 1257.437 0 01-6.282-64.586c-8.582 4.261-17.916 6.945-27.47 7.844 1.99 10.529 6.414 38.855 9.525 64.69l-2.758.34" fill="#fae0b2"/><path d="M852.473 254.023c.06.252.163.504.222.77l7.715 31.11c2.132 8.573 10.468 14.081 19.19 12.645l19.308-3.169c8.721-1.436 14.88-9.328 14.14-18.138-1.199-14.29-2.517-24.52-2.68-32.739l-57.895 9.521" fill="#96d9c9"/><path d="M823.516 103.862l-15.238-27.814a5.578 5.578 0 012.22-7.547c2.692-1.476 6.058-.487 7.547 2.205l15.239 27.813a5.578 5.578 0 01-2.22 7.548c-2.707 1.49-6.073.473-7.548-2.205M790.219 171.155L757 168.239c-3.057-.268-5.325-2.959-5.043-6.016.268-3.057 2.958-5.325 6.015-5.057l33.219 2.902a5.57 5.57 0 015.057 6.03c-.268 3.056-2.958 5.31-6.03 5.057M757.288 272.994a5.528 5.528 0 01.042-7.85 180.234 180.234 0 0126.688-21.778c2.546-1.702 5.993-1.013 7.71 1.533 1.702 2.56 1.026 6.008-1.534 7.71a170.41 170.41 0 00-25.056 20.442c-2.18 2.138-5.698 2.138-7.85-.057M905.597 102.36c-2.954-.786-4.72-3.844-3.934-6.798a211.497 211.497 0 006.858-43.165c.178-3.073 2.79-5.418 5.848-5.255a5.551 5.551 0 015.255 5.849 222.125 222.125 0 01-7.214 45.436 5.566 5.566 0 01-6.813 3.934M939.81 145.062a5.56 5.56 0 013.721-6.923l34.54-10.415a5.565 5.565 0 016.923 3.72 5.576 5.576 0 01-3.721 6.939l-34.524 10.4a5.576 5.576 0 01-6.939-3.721M996.55 236.966c-.491 0-.998-.077-1.505-.215a174.518 174.518 0 01-34.589-13.864 5.565 5.565 0 01-2.287-7.522c1.427-2.702 4.79-3.73 7.507-2.288a163.602 163.602 0 0032.378 12.973c2.948.83 4.668 3.9 3.839 6.863a5.569 5.569 0 01-5.343 4.053" fill="#fae0b2"/><path d="M1502.407 482.679l-17.425-41.203-43.81-9.002c-4.98-1.027-6.648-7.328-2.784-10.666l33.79-29.304-4.981-44.457c-.569-5.063 4.924-8.578 9.3-5.95l38.297 23.093 40.74-18.473c4.64-2.104 9.698 2.029 8.524 6.991l-10.114 43.572 30.153 33.042c3.447 3.763 1.08 9.83-4.016 10.268l-44.566 3.84-22.085 38.893c-2.519 4.428-9.035 4.05-11.023-.644" fill="#f7cc7f"/><path d="M1779.798 341.303l-7.16 28.845-47.696-6.398-15.677 40.882-36.47 1.045.546 18.462 48.749-1.4 14.867-38.741 49.597 6.654 10.782-43.404-17.538-5.945" fill="#f48c7f"/><path d="M1354.932 1724.008H516.726c-32.014 0-57.951-26.92-57.951-60.12v-35.76c0-33.2 25.937-60.12 57.951-60.12h838.206c-38.337 43.467-39.002 109.893-1.541 154.188l1.541 1.812" fill="#b75742"/><path d="M1342.01 1585.888H877.09c-32.027 0-57.97 26.92-57.97 60.12 0 33.214 25.943 60.12 57.97 60.12h464.954c-21.74-36.88-21.688-83.454-.035-120.24" fill="#fae0b2"/><path d="M1060.469 1459.66c1.226-2.28-.629-4.934-3.442-4.934h-443.53c-34.762 0-62.94 25.361-62.94 56.653 0 31.281 28.178 56.654 62.94 56.654h443.64c2.83 0 4.7-2.667 3.458-4.96-17.554-32.746-17.523-70.813-.126-103.412" fill="#86b1f2"/><path d="M1057.675 1465.272h-219.81c-40.801 0-73.862 21.254-73.862 47.467 0 26.228 33.061 47.48 73.861 47.48h221.256c-15.118-30.213-15.526-64.613-1.445-94.947" fill="#f7cc7f"/><path d="M1000.896 1487.78h-28.627c-6.152 0-11.153 2.069-11.153 4.616v.412h39.78v-5.027" fill="#b75742"/><path d="M1025.321 1499.354c0-6.4-7.467-11.574-16.7-11.574h-36.73c7.002 0 12.657 3.934 12.657 8.773l-.17 124.121 20.293-15.96 20.697 15.96-.047-121.32" fill="#f47458"/><path d="M978.924 1450.648h-258.07c-22.871 0-41.423-22.027-41.423-49.187 0-27.159 18.552-49.173 41.423-49.173h258.07c-19.723 27.266-20.499 67.254-1.84 95.56l1.84 2.8" fill="#fae0b2"/><path d="M679.446 1401.464c0-27.161 19.001-49.175 42.426-49.175H983.84c1.22 0 2.211-1.159 2.196-2.573-.015-1.4-.991-2.519-2.196-2.519h-415.6c-25.834 0-46.804 24.292-46.804 54.267 0 29.985 20.97 54.278 46.804 54.278h415.6c1.205 0 2.18-1.133 2.196-2.52.015-1.427-.991-2.573-2.196-2.573H721.87c-23.424 0-42.425-22.026-42.425-49.185" fill="#466eb6"/><path d="M933.849 1376.45h-28.621c-6.151 0-11.153 2.04-11.153 4.533v.414h39.774v-4.946" fill="#184655"/><path d="M958.275 1387.809c0-6.267-7.48-11.36-16.694-11.36h-36.735c6.997 0 12.668 3.867 12.668 8.614l-.181 121.72 20.297-15.654 20.69 15.653-.045-118.973" fill="#3c8f7c"/><path d="M1390.096 624.616l38.099-10.025-25.813 344.402-45.715 1.52 23.064-323.385a13.98 13.98 0 0110.365-12.512" fill="#184655"/><path d="M1405.794 968.81c-.867.079-1.733.066-2.618-.04-7.568-.894-13.166-8.415-12.516-16.8l25.374-323.84c.65-8.391 7.315-14.47 14.882-13.573 7.567.894 13.166 8.418 12.516 16.809l-25.357 323.842c-.596 7.401-5.851 13.014-12.28 13.601" fill="#f7cc7f"/><path d="M1055.165 986.063c.018.24.018.466.054.706 1.182 13.174 11.39 23.04 22.78 22.014l321.752-28.8c11.39-1.013 19.664-12.52 18.482-25.694a24.794 24.794 0 00-.215-1.653l-362.853 33.427" fill="#f7cc7f"/><path d="M1279.213 1333.898c-21.072 11.68-85.466-8.799-85.466-10.652-.92 17.6-72.116 189.866-72.116 189.866l.068 53.001s146.671 6.987 144.574-5.974c-2.114-12.96-10.008-4.533-39.263-29.013-2.592-2.174-43.68-11.706-32.564-36.026 22.385-48.975 69.935-130.628 84.767-161.202" fill="#f7a491"/><path d="M1116.856 1568.007l160.585.041c5.774-.588 7.14-5.307 5.09-8.174-4.219-5.893-34.983-19.813-55.669-29.04-36.025 4.2-99.364-9.653-105.155-17.866-15.254 20.426-8.08 54.373-4.851 55.039" fill="#3c8f7c"/><path d="M1081.66 1210.219c-2.189-6.52 138.236-66.107 144.504-59.294 11.136 12.04-75.973 238.094-75.973 238.094l100.084 30.573s104.005-261.16 99.663-308.933c-4.343-47.76-56.45-102.04-169.35-67.308-112.9 34.748-98.928 166.868-98.928 166.868" fill="#355389"/><path d="M1372.377 1363.606c-23.72-4.307-54.422-5.534-79.03-5.96 2.913 21.892 16.967 134.174 14.391 141.08-10.412 27.947-33.528 41.028-33.528 41.028s109.023 98.373 115.597 87.012c6.592-11.36-4.85-9.84-11.975-47.32-.622-3.332-16.4-55.653-17.36-83.866-1.865-53.814 11.088-102.081 11.905-131.974" fill="#f7a491"/><path d="M1337.37 996.277c-15.215-8.107-54.693-8.4-98.11-5.585-84.646 5.492-168.213 22.145-248.723 48.825l-53.88 17.84.16-55.24s-171.41-28.68-177.384 13.8c-8.96 63.973 2.174 193.866 59.287 222.853 177.401 90.053 426-143.453 426.9-112.906 1.203 41.027 35.785 193.706 44.638 260.546 24.599.426 66.85.413 85.176-3.801 3.57-130.946 5.23-363.225-38.064-386.332" fill="#466eb6"/><path d="M1270.875 1542.06l122.576 97.893c4.844 3.227 8.886.442 9.118-3.08.48-7.238-14.514-37.506-24.647-57.745-30.542-19.588-70.825-70.641-70.095-80.667-12.929 10.906-39.018 41.025-36.952 43.598" fill="#3c8f7c"/><path d="M993.466 462.288c-4.12-37.637-8.453-75.411-39.643-103.004-25.25-22.31-57.344-26.091-89.1-14.148-89.928 33.84-43.594 113.707-158.265 194.233-35.631 25.021-74.907 42.148-101.733 75.843-37.56 47.163-23.366 103.894 10.84 141.77 163.762 181.224 346.572-63.526 359.71-122.278 9.754-43.708 20.84-148.192 18.19-172.416" fill="#13375b"/><path d="M960.206 673.92c-13.377-24.66-27.152-44.228-27.152-44.228-13.883-24.663-49.722-37.139-49.722-37.139s-11.983.244-25.758.92c-.858 2.283-1.716 3.916-2.605 4.57-5.163 3.882-34.828-1.127-53.966 11.874-64.202 55.03-46.443 321.759-41.402 406l195.517 1.854s-24.654-181.267 15.063-227.84c27.672-32.432 9.867-79.433-9.975-116.011" fill="#50bfa5"/><path d="M872.082 502.309s-10.74 76.756-18.243 95.407c-7.52 18.65 41.256 58.539 81.845 70.645 40.588 12.108-12.396-41.197-10.725-61.136 1.687-19.937 9.069-114.334 9.069-114.334l-61.946 9.418" fill="#f7a491"/><path d="M931.962 519.964c1.195-15.618 2.06-27.07 2.06-27.07l-61.948 9.421s-1.553 9.018-3.285 21.77c25.114 14.572 47.69 9.974 63.173-4.121" fill="#f47458"/><path d="M891.513 362.114s-24.414 5.506-39.494 28.513c-15.066 23.006-25.412 90.74 24.247 122.339 49.643 31.628 88.245-13.1 88.895-56.708.636-43.623-8.712-101.828-73.648-94.144" fill="#f7a491"/><path d="M976.519 442.606c-4.23 10.53-12.631 17.059-18.764 14.593-6.133-2.465-7.67-12.996-3.439-23.526 4.23-10.53 12.63-17.06 18.763-14.594 6.133 2.48 7.67 13.011 3.44 23.527" fill="#f7a491"/><path d="M898.836 360.696s-31.122 69.81-58.463 76.048c-27.356 6.24-26.944 41.365-26.944 41.365s.589-81.125 26.237-99.725c25.62-18.615 59.17-17.688 59.17-17.688" fill="#13375b"/><path d="M851.23 451.256c3.596 11.34.303 22.506-7.368 24.947-7.656 2.427-16.8-4.796-20.396-16.135-3.597-11.325-.304-22.491 7.367-24.933 7.656-2.426 16.8 4.782 20.396 16.121M1200.927 955.288c-11.735-4.241-29.187-4.774-28.903-6.32 1.187-6.268 53.008 13.839 46.004 4.693-3.895-5.093-42.677-23.133-52.122-20.16-9.144 2.894-69.19 19.746-69.19 19.746L932.563 914.78s-41.424-94.147-45.469-175.036c-34.252 4.63-57.571 13.096-87.326 29.61 14.342 77.36 49.246 202.746 87.81 226.28 16.216 9.892 209.942-11.854 209.942-11.854s42.694-3.012 49.665-5.694c5.299-2.039 18.923-9.707 26.328-11.813 16.85-4.76 46.856 7.213 46.94 3.907.066-2.4-7.54-10.56-19.525-14.893" fill="#f7a491"/><path d="M888.106 653.317c-1.586-24.89-11.023-48.928-37.502-56.663-16.41-4.8-34.816-.206-47.937 10.51-15.603 12.74-19.962 33.188-19.889 52.538.162 43.938 3.17 89.493 11.185 132.757 29.766-16.521 64.508-26.453 98.766-31.087-.015-.257-2.554-75.16-4.623-108.055" fill="#96d9c9"/><path d="M379.525 700.288L125.045 652.9a9.43 9.43 0 01-7.533-10.987l31.88-171.186a9.43 9.43 0 0110.987-7.534l254.466 47.387c5.12.947 8.494 5.867 7.534 10.973l-31.88 171.2c-.947 5.107-5.867 8.48-10.974 7.534" fill="#f7cc7f"/><path d="M258.392 504.581l-77.467-14.427a9.43 9.43 0 01-7.533-10.986l4.853-26.04c.96-5.12 5.867-8.494 10.987-7.534l77.453 14.427c5.12.947 8.48 5.867 7.534 10.973l-4.854 26.054c-.946 5.106-5.866 8.48-10.973 7.533" fill="#f7cc7f"/><path d="M391.112 693.741a9.415 9.415 0 01-10.787 6.693l-256.133-47.693c-4.76-.893-8.08-5.253-7.653-10.08l13.4-153.453a9.5 9.5 0 013.68-6.68 9.484 9.484 0 017.426-1.76l284.547 52.986c2.6.494 4.88 2.04 6.267 4.294a9.386 9.386 0 011.066 7.52L391.112 693.74" fill="#fae0b2"/><path d="M1558.312 133.02l-43.581 11.894-9.381-52.793 14.258-2.533 6.604 37.184 28.292-7.71 3.808 13.958" fill="#50bfa5"/><path d="M170.005 858.261c10.92-.893 27.667 3.92 35.187 9.013 1.12 1.054 9.76 4.494 18.747 19.374l-2.027 1.4c-9.467-9.92-15.84-12.147-23.44-14.427-12.507-3.213-25.12-.813-26.147-.253l-2.32-15.107" fill="#355389"/><path d="M222.925 887.341s-66.493 11.093-60.293 63.04c6.2 51.947 76.347 92.347 138.96 60.227 84.213-43.214 50.947-153.094-9-161.587-59.933-8.493-69.667 38.32-69.667 38.32" fill="#f47458"/><path d="M251.139 864.474s17.346-17.813 55.346-1.613c38.014 16.2 40.76 91.76 6.867 87.373-33.907-4.386-89.32-74.866-62.213-85.76" fill="#f48c7f"/><path d="M708.537 174.413l-273.473 97.55c-8.805 3.149-18.495-1.458-21.644-10.263l-50.472-141.507c-3.148-8.818 1.458-18.51 10.263-21.658L646.684.985c8.818-3.135 18.51 1.459 21.658 10.277L718.8 152.755c3.149 8.819-1.431 18.51-10.263 21.658" fill="#86b1f2"/><path d="M527.285 138.034c10.054 28.187-4.64 59.2-32.84 69.254-28.186 10.053-59.186-4.64-69.253-32.84-10.053-28.187 4.653-59.187 32.84-69.254 28.187-10.053 59.2 4.654 69.253 32.84" fill="#fff"/><path d="M484.005 130.448c2.974 8.32-1.373 17.453-9.68 20.426-8.32 2.96-17.453-1.373-20.426-9.68-2.96-8.32 1.373-17.466 9.693-20.426 8.307-2.96 17.453 1.373 20.413 9.68M510.045 175.008l-48.093 17.16-1.933-5.4c-3.507-9.84 1.626-20.68 11.48-24.187l12.426-4.44c9.854-3.507 20.68 1.627 24.2 11.48l1.92 5.387" fill="#86b1f2"/><path d="M534.019 108.448a6.932 6.932 0 01-6.507-4.587c-1.28-3.587.6-7.547 4.187-8.827l119.546-42.64a6.918 6.918 0 012.32-.413 6.918 6.918 0 016.507 4.6c1.28 3.587-.587 7.547-4.187 8.827l-119.533 42.64a6.98 6.98 0 01-2.333.4M566.299 138.261a6.948 6.948 0 01-6.52-4.6c-1.28-3.587.6-7.547 4.2-8.827l93.36-33.306a6.906 6.906 0 018.827 4.187 6.848 6.848 0 01-.254 5.28c-.8 1.666-2.187 2.933-3.933 3.546l-93.36 33.307a6.918 6.918 0 01-2.32.413" fill="#fff"/><path d="M1133.448 1241.714H473.13c-20.516 0-37.123 16.626-37.123 37.133v31.227c0 20.506 16.607 37.132 37.123 37.132h660.317l-.34-.358c-28.254-29.402-28.109-75.907.34-105.134" fill="#f47458"/><path d="M1121.755 1257.331H768.754c-20.506 0-37.136 16.627-37.136 37.134 0 20.505 16.63 37.132 37.136 37.132h352.985c-12.963-23-12.963-51.293.016-74.266M1673.895 1244.753l-50.065-125.575c-2.509-6.32.58-13.48 6.882-16l180.11-71.786c6.324-2.52 13.476.56 16.005 6.879l50.045 125.573c2.529 6.321-.56 13.482-6.862 16l-180.11 71.788c-6.324 2.52-13.497-.56-16.005-6.879" fill="#fae0b2"/><path d="M1843.805 1172.139l-45-112.84a3.536 3.536 0 011.974-4.589c1.83-.72 3.885.16 4.605 1.974l44.979 112.84a3.536 3.536 0 01-1.974 4.589 3.529 3.529 0 01-4.584-1.974M1822.361 1157.271l-36.93-92.639a3.535 3.535 0 011.982-4.587c1.818-.733 3.86.16 4.596 1.973l36.93 92.64a3.553 3.553 0 01-1.982 4.6 3.537 3.537 0 01-4.596-1.987M1817.026 1182.809l-44.986-112.839a3.537 3.537 0 011.978-4.588 3.52 3.52 0 014.588 1.974l44.987 112.84a3.535 3.535 0 01-1.978 4.587c-1.815.72-3.875-.16-4.589-1.974M1793.393 1162.392l-34.705-87.093a3.528 3.528 0 011.964-4.588 3.529 3.529 0 014.597 1.974l34.705 87.093a3.509 3.509 0 01-1.964 4.586 3.54 3.54 0 01-4.597-1.972" fill="#466eb6"/><path d="M1842.582 1047.26l-.902-2.265c-.349-.84-1.25-1.266-2.03-.948l-17.103 6.815c-.78.305-1.148 1.253-.82 2.08l.902 2.28c.328.826 1.25 1.253 2.03.947l17.083-6.815c.8-.32 1.168-1.253.84-2.093M1846.472 1056.978l-.903-2.267c-.35-.84-1.252-1.266-2.053-.946l-17.082 6.814c-.8.306-1.15 1.24-.821 2.08l.903 2.279c.329.827 1.253 1.254 2.033.946l17.102-6.812c.78-.32 1.15-1.254.821-2.094M1850.34 1066.698l-.904-2.267c-.35-.84-1.254-1.266-2.035-.947l-17.101 6.814c-.781.306-1.151 1.239-.823 2.08l.905 2.28c.35.825 1.254 1.253 2.035.947l17.101-6.826c.781-.309 1.151-1.242.822-2.08M1854.209 1076.421l-.906-2.267c-.33-.84-1.255-1.266-2.037-.947l-17.08 6.814c-.803.306-1.173 1.24-.844 2.08l.906 2.28c.35.827 1.255 1.253 2.037.934l17.1-6.813c.782-.307 1.153-1.24.824-2.08M1858.077 1086.14l-.907-2.265c-.33-.84-1.236-1.267-2.04-.948l-17.079 6.813c-.782.307-1.153 1.24-.824 2.08l.907 2.267c.33.84 1.236 1.267 2.04.946l17.079-6.811c.803-.307 1.153-1.24.824-2.081M1861.945 1095.865l-.908-2.267c-.33-.842-1.237-1.266-2.021-.947l-17.099 6.813c-.784.307-1.155 1.24-.825 2.08l.908 2.266c.33.841 1.237 1.266 2.021.947l17.099-6.813c.784-.305 1.155-1.24.825-2.08M1865.813 1105.583l-.909-2.266c-.33-.84-1.239-1.267-2.023-.947l-17.098 6.814c-.785.306-1.136 1.239-.805 2.08l.908 2.267c.33.838 1.24 1.266 2.024.946l17.077-6.813c.805-.307 1.156-1.24.826-2.081M1869.703 1115.3l-.91-2.267c-.33-.84-1.24-1.265-2.026-.945l-17.097 6.812c-.785.306-1.157 1.24-.827 2.08l.91 2.268c.33.839 1.24 1.265 2.026.946l17.097-6.813c.786-.306 1.158-1.24.827-2.08M1873.571 1125.02l-.91-2.267c-.332-.84-1.242-1.267-2.029-.946l-17.096 6.813c-.786.307-1.138 1.24-.807 2.08l.91 2.267c.332.84 1.242 1.266 2.029.946l17.096-6.812c.786-.308 1.138-1.242.807-2.082M1877.44 1134.744l-.913-2.267c-.331-.84-1.243-1.266-2.03-.947l-17.095 6.813c-.787.306-1.16 1.241-.808 2.08l.891 2.267c.331.84 1.243 1.266 2.03.947l17.095-6.813c.788-.307 1.16-1.241.83-2.08M1881.307 1144.464l-.912-2.282c-.312-.826-1.224-1.253-2.013-.934l-17.093 6.815c-.789.307-1.162 1.24-.83 2.079l.913 2.267c.332.84 1.244 1.268 2.033.946l17.093-6.812c.789-.307 1.141-1.241.81-2.08M1885.197 1154.18l-.914-2.28c-.332-.827-1.225-1.253-2.014-.947l-17.093 6.826c-.789.308-1.163 1.24-.83 2.081l.913 2.266c.333.841 1.226 1.267 2.015.947l17.093-6.814c.789-.32 1.163-1.24.83-2.079" fill="#355389"/><path d="M1932.424 1144.182l-71.492 101.787c-.148.227-.296.48-.38.747l-7.28 22.36c-.847 2.599 2.158 4.76 4.338 3.106l19.132-14.427a2.43 2.43 0 00.614-.626l71.681-102.054a2.79 2.79 0 00-.804-3.96l-12.021-7.693c-1.27-.8-2.942-.467-3.788.76" fill="#b75742"/><path d="M1877.293 1257.232l-.166.255-18.48 13.918-5.014-3.373 6.899-21.2c5.407 2.96 11.871 6 16.76 10.4" fill="#f7cc7f"/><path d="M1208.218 42.218c10.303 8.218 28.205 34.638 51.02 53.194 13.36 10.851 23.664 8.094 40.718 10.144 80.904 9.79 58.99 26.332 68.692 27.94-2.757 6.345-27.975 59.927-32.676 70.76-4.347 9.985-11.858 14.457-22.744 12.954-16.736-2.315-33.613-4.029-50.084-7.599-42.237-9.154-65.724-30.273-95.996-55.933-8.024-6.804-10.003-15.286-5.832-24.9 19.369-44.764 44.817-82.442 46.902-86.56" fill="#466eb6"/><path d="M1377.408 197.972c-.358 17.619.983 21.16-6.6 18.495-4.544-1.61-8.962-3.72-13.273-5.938-3.023-1.557-3.148-3.632-.68-6.118 3.596-3.595 7.28-7.119 10.876-10.607-2.63-6.922.375-14.971 6.85-18.763 1.306-.77.358.876 11.627-25.06-37.276-4.597-63.57-7.673-109.02-13.272-12.146-1.484-22.968-6.224-32.358-14.077-32.483-27.17-64.948-54.34-97.395-81.528-4.4-3.703-4.954-9.105-1.466-13.255 2.683-3.184 6.224-3.345 10.034-2.862 10.375 1.306 112.098 13.934 122.418 15.15 13.577 1.575 25.525 6.69 36.025 15.473 31.892 26.723 63.874 53.339 95.802 79.99 4.4 3.667 5.58 7.012 4.042 11.09-1.699 4.472-5.401 6.6-10.964 5.402-4.043-.877-5.813.34-7.209 4.078-6.26 16.85-10.642 20.588-9.122 26.741 1.163 4.758-4.49 12.986-9.587 15.06" fill="#86b1f2"/><path d="M1546.154 1395.743l18.537 17.68a492.724 492.724 0 01105.477 146.16l2.851 6.012s48.54 4.294 55.313-39.6c-42.579-48.079-77.632-99.427-106.566-156.532l-8.773-20.521-66.839 46.801" fill="#466eb6"/><path d="M1612.93 1348.889c2.389 3.413-10.625 16.613-29.086 29.467-18.423 12.867-35.413 20.68-37.783 17.266-2.388-3.413 10.722-16.773 29.164-29.625 18.441-12.867 35.335-20.535 37.705-17.108" fill="#86b1f2"/><path d="M1613.008 1349.008l-.038-.065s-36.976 31.28-52.186 34.465l4.7 6.401c5.561-3 11.886-6.908 18.364-11.454 18.25-12.707 31.167-25.747 29.16-29.347" fill="#355389"/><path d="M1662.39 1439.82c.077 5.386-2.005 28.667-40.708 38.374 2.53 3.466 5.04 6.973 7.491 10.506 24.518-7.252 35.532-19.826 40.494-29.414.778-1.506 1.732-3.545 2.354-5.12-3.269-4.745-6.48-9.518-9.632-14.346" fill="#b75742"/><path d="M1625.154 1471.316l-57-2.041 13.506 11.467-8.058 14.64 53.931-13.746-2.379-10.32M1630.34 1484.569l-20.24 35.265 14.232-5.411 5.489 11.198 9.513-37.093-8.993-3.96" fill="#b75742"/><path d="M1638.074 1494.126c-9.988.707-18.7-7.08-19.435-17.387-.736-10.306 6.794-19.24 16.803-19.947 9.988-.706 18.7 7.081 19.435 17.388.736 10.306-6.775 19.24-16.803 19.946" fill="#f47458"/><path d="M1759.034 693.903L1639.027 586.82c-7.79-6.96-4.55-21.276 6.211-27.369l95.764-54.228c6.15-3.472 13.046-3.15 17.491.816L1878.5 613.122c7.79 6.959 4.55 21.276-6.21 27.368l-95.765 54.229c-6.15 3.471-13.046 3.15-17.491-.816" fill="#9bc1f9"/><path d="M1753.338 608.72l-9.996-82.272c-.391-3.15 1.917-6.518 5.111-7.52 3.215-1.003 6.142.744 6.533 3.893l9.192 75.705 91.009 22.004c2.947.717 4.328 3.916 3.05 7.147-1.278 3.228-4.74 5.264-7.708 4.545l-97.191-23.503" fill="#fff"/><path d="M186.325 231.874l12.4 24.547 28.027-.907 11.96 28.48 29.547-10.16 14.946 31.614 28.36-6.014 19.347 28.08-10.627 7.32-14.466-20.986-29.934 6.346-14.36-30.4-30.04 10.334-13.2-31.427-27.36.88-11.506-22.747-17.84 4.347-3.054-12.547 27.8-6.76" fill="#f7cc7f"/><path d="M1687.059 859.579l25.468 10.346 20.543-19.093 27.735 13.626 15.598-27.08 32.041 14.027 17.432-23.16 33.03 8.454-3.194 12.493-24.705-6.308-18.4 24.44-30.785-13.48-15.866 27.535-30.62-15.042-20.048 18.642-23.593-9.588-10.612 15-10.529-7.452 16.505-23.36" fill="#50bfa5"/></svg>