<?xml version="1.0" standalone="no"?>
<!DOCTYPE svg PUBLIC "-//W3C//DTD SVG 20010904//EN"
 "http://www.w3.org/TR/2001/REC-SVG-20010904/DTD/svg10.dtd">
<svg version="1.0" xmlns="http://www.w3.org/2000/svg"
 width="310.000000pt" height="310.000000pt" viewBox="0 0 310.000000 310.000000"
 preserveAspectRatio="xMidYMid meet">
<metadata>
Created by potrace 1.14, written by Peter Selinger 2001-2017
</metadata>
<g transform="translate(0.000000,310.000000) scale(0.100000,-0.100000)"
fill="#000000" stroke="none">
<path d="M1390 3090 c-19 -5 -75 -16 -125 -25 -49 -9 -128 -27 -175 -41 -116
-35 -326 -139 -435 -215 -115 -81 -282 -249 -362 -362 -126 -179 -221 -403
-257 -607 -10 -52 -22 -114 -27 -138 -12 -55 -12 -249 0 -304 5 -24 17 -86 27
-138 36 -204 131 -428 257 -607 77 -109 246 -279 353 -356 156 -110 342 -196
525 -243 189 -48 230 -54 379 -54 269 0 547 74 766 203 496 293 784 789 784
1351 0 131 -4 164 -31 280 -42 181 -80 290 -145 417 -219 428 -624 731 -1084
813 -52 10 -114 22 -138 27 -50 11 -262 10 -312 -1z m800 -630 c0 -61 4 -82
14 -86 8 -3 72 -6 143 -7 l128 -2 3 -370 2 -370 -72 -29 c-40 -16 -92 -37
-115 -48 -23 -10 -44 -18 -48 -18 -6 0 -84 -34 -133 -58 -18 -8 -49 -37 -68
-63 -19 -26 -98 -107 -175 -180 l-140 -132 3 -76 3 -76 128 -3 127 -3 0 -83 0
-83 -332 -6 c-182 -4 -382 -7 -445 -7 l-113 0 0 95 0 94 133 3 132 3 3 69 3
70 -154 150 c-85 83 -163 163 -173 178 -15 22 -64 46 -224 112 l-205 85 0 378
0 378 143 3 142 3 0 73 c0 40 3 76 7 79 3 4 294 7 645 7 l638 0 0 -80z"/>
<path d="M1550 2275 c0 -73 1 -75 30 -90 29 -15 50 -49 50 -81 0 -8 -18 -34
-40 -58 l-41 -44 3 -89 3 -88 37 -3 c33 -3 38 0 44 22 3 14 30 46 59 70 68 59
95 115 95 201 0 76 -20 123 -72 171 -44 42 -89 64 -133 64 l-35 0 0 -75z"/>
<path d="M2202 2208 c-6 -8 -11 -121 -14 -275 -4 -277 -4 -278 40 -253 9 5 33
16 54 25 20 9 39 26 42 38 10 39 7 437 -4 458 -8 15 -21 19 -59 19 -27 0 -53
-6 -59 -12z"/>
<path d="M792 2198 c-13 -13 -18 -421 -5 -453 6 -16 95 -65 118 -65 14 0 7
500 -7 518 -13 15 -90 16 -106 0z"/>
<path d="M1550 1675 l0 -65 40 0 40 0 0 65 0 65 -40 0 -40 0 0 -65z"/>
</g>
</svg>
